<svg width="124" height="143" viewBox="0 0 124 143" xmlns="http://www.w3.org/2000/svg" xmlns:xlink="http://www.w3.org/1999/xlink"><title>Slice 1</title><defs><path id="a" d="M.06-.028h123.47V142.94H.06"/></defs><g fill="none" fill-rule="evenodd"><mask id="b" fill="#fff"><use xlink:href="#a"/></mask><path d="M115.842 9.815s-7.425 15.937-11.2 23.86c-18.488-8.508-42.732-9.72-63.103 2.35-13.584 8.303-24.536 23.06-25.668 38.907-.38 10.565 4.21 22.128 2.7 32.694-.377 5.657-1.68 11.31-4.322 16.21-3.394 5.66-7.46 10.568-14.25 10.946 1.51-1.886 11.993-7.057 7.87-30.802-1.634-9.414-14.573-32.762-2.067-62.033C17.223 15.22 66.63-16.445 115.843 9.815" fill="#1E3C34" mask="url(#b)"/><path d="M59.233 56.68c6.4-2.306 13.566-2.348 20.362-.844 12.825 2.265 22.426 10.006 27.107 21.5 4.898 12.028 8.413 21.732 16.825 32.013.24.294-13.136-1.966-13.087-2.336 3.272-23.835-19.258-24.82-25.47-15.892 4.674 5.142 12.7 7.783 18.928 6.778-1.32 23.67 5.28 45.15 4.91 45.1-5.37-.743-29.966-15.214-37.158-21.498-10.566 1.883-18.84 5.787-31.08 7.478-.376.052 2.246-9.028 1.87-13.555 0-12.45-9.542-24.12-2.79-39.412C43.695 66.84 49.8 60.076 59.232 56.68" fill="#1E3C34" mask="url(#b)"/><path d="M68.085 49.5c.717.01 1.805.177 1.825.1.202-.82.872-6.724 5.902-11.028 5.595-4.79 12.95-4.315 12.875-4.36-7.328-2.24-14.88-2.398-20.094-1.937L68.085 49.5M21.478 70.98c-1.115 7.094-1.19 13.676-.595 17.174.014.046 1.055-6.008 4.498-9.416 3-2.973 6.823-3.553 8.18-3.506 0-.02.68-2.32.583-2.326L21.478 70.98M35.662 69.662c.37-.946.818-1.778 1.367-2.854l-13.02-5.05c-.81 1.623-1.418 4.055-1.72 5.372l13.372 2.532M38.804 64.7c.036-.042 2.09-2.662 2.128-2.636l-11.93-8.968c-1.24 1.57-2.255 3.294-3.066 5.117L38.804 64.7M43.245 59.815c.066-.068 2.65-2.41 2.65-2.41L35.563 45.65c-2.332 2.025-3.04 2.937-4.46 4.662l12.143 9.503M48.612 55.738c.02.144 2.97-1.65 3.035-1.783l-7.676-13.98c-2.937 1.42-4.813 2.94-5.672 3.548l10.314 12.215M54.306 52.642c3.664-1.245 3.648-1.283 3.648-1.216L53.597 35.72c-2.43.71-5.713 2.115-6.486 2.635l7.196 14.287M60.79 50.513c.133.066 3.305-.707 3.345-.71l.404-17.022c-.133.133-3.952.712-7.194 1.624l3.445 16.11" fill="#1E3C34"/></g></svg>