<svg width="266" height="57" viewBox="0 0 266 57" xmlns="http://www.w3.org/2000/svg"><title>Slice 1</title><g fill="#FFF" fill-rule="evenodd"><path d="M4.708 40.73v10.247c0 1.71.557 4.133 3.574 4.133 2.76 0 3.758-1.91 3.758-4.33l-.046-10.05c0-.564-.278-.908-.626-1.105h2.69c-.347.197-.602.54-.602 1.104l-.07 10c0 4.16-2.344 5.774-5.5 5.774-2.714 0-6.17-1.272-6.17-5.602V40.73c0-.564-.372-.908-.743-1.105h4.455c-.37.197-.72.54-.72 1.104M43.92 40.73c0-.564-.23-.908-.602-1.105h2.576c-.35.197-.604.54-.604 1.104v16.214s-11.137-13.842-11.137-14.04v12.254c0 .538.255.88.65 1.1h-2.576c.348-.22.603-.562.603-1.1v-13.06c0-.955.023-.98-.417-1.542-.233-.293-.558-.636-1.045-.93h3.99l8.563 10.763v-9.66M68.562 39.625c-.395.197-.603.54-.603 1.104v14.428c0 .538.207.88.602 1.1h-4.2c.37-.22.603-.562.603-1.1v-14.43c0-.562-.232-.906-.603-1.103h4.2M96.847 40.85c.21-.636.116-.98-.488-1.225h2.83c-.603.418-.65.59-.88 1.176-.396.954-5.988 15.973-5.988 15.973S86.266 41.705 85.825 40.8c-.278-.49-.556-.88-1.253-1.175H89.7c-.603.246-.65.76-.488 1.348.048.218 3.922 10.273 3.922 10.273s3.69-10.224 3.713-10.396M125.015 41.78c-.44-.637-.928-.833-1.81-.882-.696-.048-3.944-.048-3.944-.048v5.627h3.504c.325 0 .72-.393.836-.686v2.593c-.117-.342-.51-.71-.836-.71h-3.503v7.192c.465.073 1.88.172 3.017.122 2.018-.05 2.947 0 3.806-1.54l-.488 2.812h-9.977c.394-.246.695-.514.695-1.102v-14.43c0-.562-.324-.906-.695-1.103h9.327l.07 2.154M147.01 40.85v6.383s.65.05 1.045.05c1.578 0 3.25-.93 3.25-3.4 0-1.125-.652-3.082-2.948-3.082-.697 0-1.347.05-1.347.05zm3.435 6.97c1.578.17 2.274 1.296 2.62 1.836 0 0 2.787 4.647 3.6 5.625.44.587 1.483.98 1.483.98l-3.017.05c-.88 0-1.646-.564-2.064-1.152-1.043-1.54-2.064-3.326-2.9-4.695-.603-.98-1.137-2.03-2.135-2.03-.277 0-1.02.048-1.02.048v6.678c0 .538.256.88.65 1.1h-4.2c.372-.22.604-.562.604-1.1v-14.43c0-.562-.232-.906-.603-1.103h5.013c4.802 0 5.892 2.473 5.892 4.11 0 2.642-2.273 3.962-3.92 4.085zM183.603 51.367c0 3.058-2.552 5.137-5.406 5.137-2.113 0-3.642-.758-4.455-1.174l-.115-4.135c.44 1.74 1.832 4.037 4.244 4.037 2.3 0 2.995-1.736 2.995-2.934 0-2.35-2.017-2.667-4.13-3.866-2.135-1.246-3.063-2.568-3.063-4.428 0-3.326 2.947-4.647 5.058-4.647.79 0 2.32.172 3.503.906l.117 3.62c-.325-1.297-1.647-3.254-3.875-3.254-1.763 0-2.46 1.296-2.46 2.35 0 1.49.998 2.05 3.18 3.104 2.158 1.076 4.408 1.885 4.408 5.283M205.924 39.625c-.395.197-.604.54-.604 1.104v14.428c0 .538.21.88.604 1.1h-4.2c.37-.22.604-.562.604-1.1v-14.43c0-.562-.233-.906-.603-1.103h4.2M231.123 40.85v14.308c0 .538.256.88.604 1.1h-4.155c.37-.22.604-.562.604-1.1V40.85c-1.717 0-3.713.172-3.713.172-.557 0-.95.562-1.16.976v-2.373h12.717v2.373c-.21-.414-.536-.928-1.092-.976 0 0-2.112-.172-3.805-.172M265.346 39.625c-.72.246-1.254.93-1.533 1.493l-3.71 7.436v6.604c0 .538.438.88.81 1.1h-4.64c.348-.22.79-.512.79-1.1v-6.506l-4.55-7.85c-.325-.588-.58-.833-1.205-1.177h5.243c-.58.246-.974.368-.37 1.518l3.27 6.017 3.065-6.31c.325-.54.16-1.052-.488-1.225h3.32M18.998 1.267h5.447c-.516.272-.838.748-.838 1.528v20.043c0 .747.322 1.223.838 1.53h-5.77c.517-.307.84-.783.84-1.53V5.752c0-.408.064-.782.064-.782l-.292.782-7.735 19.09-7.8-18.548-.225-.916v17.46c0 .747.355 1.223.902 1.53H.852c.484-.307.84-.783.84-1.53V2.795c0-.645-.517-1.256-1.033-1.528h5.67L12.78 16.86l6.22-15.593M35.497 1.267c-.548.272-.838.748-.838 1.528v20.043c0 .747.29 1.223.837 1.53h-5.834c.516-.307.838-.783.838-1.53V2.795c0-.78-.32-1.256-.837-1.528h5.834M60.215 7.925c-1.967-4.72-5.737-5.197-7.284-5.197-5.51 0-8.636 4.246-8.636 9.715 0 4.654 2.223 10.395 8.863 10.395 1.514 0 5.157-.544 7.284-5.198.065-.135-.29 4.892-.29 4.892-2.675 1.597-5.543 2.175-8.186 2.175-6.35 0-11.99-4.586-11.99-11.822 0-5.945 4.19-11.99 12.377-11.99 2.644 0 5.06.542 7.575 1.765 0 0 .354 5.4.29 5.265M79.1 1.267h5.832c-.548.272-.902.748-.902 1.528v20.043c0 .747.354 1.223.902 1.53H79.1c.515-.307.837-.783.837-1.53V12.443H69.914v10.395c0 .747.29 1.223.837 1.53H64.92c.516-.307.838-.783.838-1.53V2.795c0-.78-.322-1.256-.838-1.528h5.833c-.546.272-.836.748-.836 1.528v7.984h10.023V2.794c0-.78-.322-1.256-.838-1.528M95.952 1.267c-.548.272-.838.748-.838 1.528v20.043c0 .747.29 1.223.838 1.53h-5.834c.516-.307.84-.783.84-1.53V2.795c0-.78-.324-1.256-.84-1.528h5.834M120.477 2.66l.226 5.4c-1.643-4.62-5.737-5.332-7.252-5.332-5.477 0-8.636 4.246-8.636 9.715 0 4.654 2.19 10.395 8.863 10.395.677 0 2.578-.068 4.093-1.12v-5.91c0-.783-.322-1.26-.838-1.564h5.77c-.484.305-.838.78-.838 1.563v5.027c0 .68.354 1.29.515 1.393-2.71 1.596-7.285 2.48-9.863 2.48-6.414 0-12.086-4.586-12.086-11.822 0-5.945 4.223-11.99 12.473-11.99 2.643 0 5.028.61 7.574 1.765M136.912 16.214c-1.516-3.77-3.287-8.322-3.287-8.322s-2.192 5.774-3.224 8.322h6.512zm7.09 6.488c.322.714.547 1.087 1.61 1.665h-6.895c.837-.476.998-.95.773-1.665-.097-.34-.935-2.412-1.838-4.722h-7.896c-.966 2.31-1.74 4.314-1.805 4.688-.29.815-.127 1.29.743 1.7h-4.447c.9-.647 1.192-1.02 1.514-1.666.613-1.29 9.09-22.148 9.09-22.148s8.572 20.857 9.152 22.148zM163.854 2.795c0-.78-.324-1.256-.838-1.528h3.576c-.483.272-.837.748-.837 1.528v22.523s-15.47-19.227-15.47-19.5v17.02c0 .747.354 1.223.903 1.53h-3.58c.486-.307.84-.783.84-1.53V4.698c0-1.324.032-1.36-.58-2.14-.323-.408-.774-.883-1.452-1.29h5.545l11.894 14.946V2.794M193.016 17.573c0 4.246-3.543 7.134-7.51 7.134-2.932 0-5.06-1.054-6.188-1.63l-.16-5.742c.613 2.412 2.546 5.605 5.9 5.605 3.188 0 4.156-2.412 4.156-4.076 0-3.26-2.804-3.703-5.737-5.368-2.965-1.732-4.254-3.566-4.254-6.148 0-4.62 4.093-6.454 7.025-6.454 1.096 0 3.225.237 4.867 1.256l.16 5.028c-.45-1.8-2.287-4.518-5.38-4.518-2.45 0-3.417 1.8-3.417 3.26 0 2.074 1.385 2.854 4.416 4.315 2.997 1.495 6.122 2.616 6.122 7.338M205.878 2.966v19.872c0 .747.354 1.223.84 1.53h-5.77c.514-.307.837-.783.837-1.53V2.966c-2.385 0-5.158.238-5.158.238-.773 0-1.322.78-1.61 1.358V1.267h17.662v3.295c-.292-.577-.742-1.29-1.516-1.358 0 0-2.934-.238-5.286-.238M222.375 16.214c-1.514-3.77-3.287-8.322-3.287-8.322s-2.19 5.774-3.223 8.322h6.51zm7.09 6.488c.324.714.55 1.087 1.613 1.665h-6.896c.837-.476.998-.95.773-1.665-.098-.34-.935-2.412-1.838-4.722h-7.896c-.966 2.31-1.74 4.314-1.804 4.688-.29.815-.13 1.29.742 1.7h-4.45c.903-.647 1.193-1.02 1.517-1.666.612-1.29 9.088-22.148 9.088-22.148s8.573 20.857 9.153 22.148zM239.492 2.966v19.872c0 .747.354 1.223.837 1.53h-5.77c.516-.307.838-.783.838-1.53V2.966c-2.384 0-5.156.238-5.156.238-.773 0-1.322.78-1.612 1.358V1.267h17.66v3.295c-.288-.577-.74-1.29-1.513-1.358 0 0-2.933-.238-5.285-.238M262.822 4.257c-.61-.883-1.287-1.155-2.513-1.224-.968-.067-5.48-.067-5.48-.067v7.813h4.867c.45 0 .998-.545 1.16-.952v3.6c-.162-.475-.71-.985-1.16-.985h-4.867v9.987c.645.102 2.61.238 4.19.17 2.804-.068 4.093 0 5.286-2.14l-.677 3.907h-13.86c.548-.34.967-.714.967-1.53V2.796c0-.78-.452-1.256-.966-1.528h12.957l.095 2.99M.595 30.358H264.86v1.786H.596v-1.786z"/></g></svg>